<mxfile host="app.diagrams.net" modified="2022-06-15T09:48:03.585Z" agent="5.0 (Macintosh; Intel Mac OS X 10_15_7) AppleWebKit/537.36 (KHTML, like Gecko) Chrome/101.0.4951.67 Safari/537.36" etag="ctYe1iT-qPbTUHSARTcc" version="17.4.6" type="github">
  <diagram id="vL2vsRPLsXMtJ4D0PWGO" name="Page-1">
    <mxGraphModel dx="1726" dy="741" grid="1" gridSize="10" guides="1" tooltips="1" connect="1" arrows="1" fold="1" page="1" pageScale="1" pageWidth="827" pageHeight="1169" math="0" shadow="0">
      <root>
        <mxCell id="0" />
        <mxCell id="1" parent="0" />
      </root>
    </mxGraphModel>
  </diagram>
</mxfile>
